<?xml version="1.0" standalone="no"?>
<!DOCTYPE svg PUBLIC "-//W3C//DTD SVG 20010904//EN"
 "http://www.w3.org/TR/2001/REC-SVG-20010904/DTD/svg10.dtd">
<svg version="1.0" xmlns="http://www.w3.org/2000/svg"
 width="225.000000pt" height="225.000000pt" viewBox="0 0 225.000000 225.000000"
 preserveAspectRatio="xMidYMid meet">
<metadata>
Created by potrace 1.14, written by Peter Selinger 2001-2017
</metadata>
<g transform="translate(0.000000,225.000000) scale(0.100000,-0.100000)"
fill="#000000" stroke="none">
<path d="M180 2233 c-27 -10 -65 -37 -95 -67 -90 -90 -85 -24 -85 -1041 0
-1017 -5 -951 84 -1041 85 -84 84 -84 563 -84 l413 0 0 70 0 69 -412 3 c-409
3 -413 3 -444 25 -67 48 -64 -1 -64 958 0 959 -3 910 64 958 l31 22 750 0 750
0 31 -22 c62 -45 64 -58 64 -520 l0 -417 70 69 70 69 0 361 c0 427 -2 438 -83
520 -90 90 -41 85 -906 84 -662 0 -762 -3 -801 -16z"/>
<path d="M420 1760 l0 -70 565 0 565 0 0 70 0 70 -565 0 -565 0 0 -70z"/>
<path d="M420 1480 l0 -70 565 0 565 0 0 70 0 70 -565 0 -565 0 0 -70z"/>
<path d="M420 1195 l0 -75 563 2 562 3 3 73 3 72 -566 0 -565 0 0 -75z"/>
<path d="M1965 1119 c-40 -11 -701 -675 -739 -741 -18 -31 -41 -104 -65 -213
-21 -91 -36 -165 -33 -165 2 0 73 16 158 35 220 50 227 55 617 443 175 175
325 329 333 344 18 34 18 91 0 126 -25 48 -159 168 -196 175 -37 8 -35 8 -75
-4z m-52 -337 l97 -98 -237 -235 c-131 -130 -249 -242 -262 -249 -22 -11 -29
-7 -112 76 -49 49 -89 93 -89 98 0 9 490 506 500 506 3 0 49 -44 103 -98z"/>
<path d="M427 983 c-4 -3 -7 -37 -7 -75 l0 -68 283 2 282 3 0 70 0 70 -276 3
c-151 1 -278 -1 -282 -5z"/>
</g>
</svg>
